<svg width="72" height="31" viewBox="0 0 72 31" fill="none" xmlns="http://www.w3.org/2000/svg">
    <g clip-path="url(#clip0_407_3518)">
        <path d="M20.8098 0C21.3549 0.494783 21.8197 1.07155 22.1871 1.70952C22.5498 2.31543 22.7834 2.98971 22.8734 3.69012C22.4209 4.24243 21.8693 4.70541 21.2469 5.05529C20.6247 5.4259 19.9376 5.67455 19.2223 5.78794C18.6686 5.33306 18.2055 4.77797 17.8572 4.15169C17.4917 3.5155 17.2342 2.82312 17.0952 2.10271C17.59 1.55821 18.1668 1.09431 18.8047 0.727766C19.4216 0.361861 20.1018 0.114999 20.8098 0Z" fill="#E88634"/>
        <path d="M51.2294 0C51.7738 0.494965 52.2376 1.07172 52.6044 1.70952C52.9665 2.31589 53.2009 2.98988 53.2931 3.69012C52.8434 4.24503 52.2943 4.7113 51.6739 5.06506C51.0526 5.4356 50.3663 5.68425 49.6518 5.79771C49.0929 5.34153 48.6262 4.78286 48.2768 4.15169C47.9086 3.51782 47.6486 2.82698 47.5076 2.10759C48.003 1.56381 48.5797 1.10001 49.2171 0.732651C49.8359 0.364177 50.5186 0.115623 51.2294 0Z" fill="#E88634"/>
        <path d="M0.0415169 10.9701C0.593767 10.6571 1.16468 10.3781 1.75103 10.1349C2.335 9.8912 2.93775 9.69518 3.55335 9.54878L4.20053 6.47409C4.60587 6.16028 5.0469 5.89551 5.51442 5.68527C6.01262 5.45896 6.53199 5.23672 7.07252 5.01855L7.91995 5.50699L6.94308 9.95662H11.9666C12.0204 10.3046 12.0204 10.6588 11.9666 11.0068C11.9071 11.3822 11.7689 11.7409 11.5612 12.0593H6.55234L4.00516 23.728C3.89607 24.2392 3.81467 24.6894 3.76094 25.0785C3.70983 25.4312 3.6829 25.787 3.68035 26.1433C3.68035 26.8418 3.88305 27.3522 4.28845 27.6745C4.66221 27.9881 5.13398 28.161 5.62187 28.163C6.35908 28.1527 7.08977 28.0232 7.78563 27.7796C8.51332 27.5398 9.22329 27.2493 9.91032 26.9102L10.3548 27.6428C10.0528 28.0526 9.6837 28.4085 9.26314 28.6954C8.74581 29.0672 8.19757 29.394 7.62445 29.6722C7.01435 29.9729 6.37845 30.2181 5.72444 30.4049C5.11292 30.5859 4.47924 30.6812 3.84153 30.6882C2.65464 30.6882 1.72498 30.4195 1.05257 29.8823C0.380164 29.345 0.043145 28.5016 0.0415169 27.3522C0.0440063 26.9343 0.0774743 26.5172 0.141646 26.1042C0.208398 25.6467 0.296316 25.1762 0.4054 24.6927L3.07469 12.0569H0L0.0415169 10.9701Z" fill="#E88634"/>
        <path d="M14.3596 11.9346V10.9235C14.7634 10.7607 15.2217 10.5922 15.7346 10.418C16.2474 10.2446 16.7725 10.0883 17.3122 9.95401C17.8519 9.81969 18.3624 9.70979 18.8484 9.60966C19.2743 9.52112 19.7077 9.47369 20.1427 9.46802L20.8754 9.95645L17.068 27.9137H20.0621V28.9638C19.4576 29.4163 18.786 29.7715 18.0717 30.0164C17.3588 30.2781 16.6063 30.4152 15.8469 30.4218C15.0622 30.4218 14.5021 30.246 14.1667 29.8943C14.005 29.735 13.8769 29.5448 13.79 29.3351C13.7032 29.1253 13.6594 28.9002 13.6612 28.6732C13.6606 28.145 13.7015 27.6175 13.7833 27.0956C13.8647 26.5827 13.9722 26.0129 14.1057 25.3861L16.9386 12.3205L14.3596 11.9346Z" fill="#E88634"/>
        <path d="M35.5139 22.2503C35.1411 23.2638 34.6989 24.2503 34.1902 25.2029C33.6844 26.1707 33.0734 27.0798 32.3684 27.9137C31.7179 28.6916 30.947 29.3603 30.0849 29.8943C29.2844 30.3967 28.3584 30.6634 27.4132 30.6636C24.6096 30.6636 23.2078 28.6285 23.2078 24.5582C23.2049 22.6879 23.4773 20.8274 24.0161 19.0364C24.5229 17.3154 25.3209 15.694 26.3753 14.2425C27.3703 12.8654 28.6453 11.7143 30.1167 10.8649C31.6378 10.0019 33.3622 9.56172 35.1109 9.59013C35.6564 9.57514 36.2013 9.63596 36.7301 9.77085C37.228 9.92662 37.7172 10.1092 38.1954 10.3179C39.2415 9.75961 40.4091 9.46772 41.5949 9.46802L37.9414 27.9137H40.894V28.9419C40.3104 29.4034 39.6543 29.7648 38.9524 30.0115C38.2405 30.2772 37.4875 30.416 36.7276 30.4218C35.9461 30.4218 35.3869 30.2533 35.0499 29.9163C34.8971 29.7814 34.7734 29.6168 34.6865 29.4324C34.5995 29.248 34.5512 29.0479 34.5443 28.8442C34.5785 28.0428 34.6732 27.2452 34.8276 26.4582C35.0149 25.3511 35.2973 23.9484 35.6751 22.2503H35.5139ZM29.1227 28.1555C29.8505 28.1555 30.5791 27.812 31.3085 27.1249C32.0864 26.3768 32.7778 25.5437 33.3696 24.6412C34.0179 23.6736 34.5989 22.6626 35.1085 21.6154C35.6213 20.5669 36.0284 19.6926 36.3296 18.9925L37.6093 12.0958C37.2782 11.8501 36.9095 11.6596 36.5176 11.5317C36.0394 11.4082 35.5459 11.3539 35.0523 11.3705C33.8294 11.3645 32.6399 11.7696 31.6748 12.5207C30.6249 13.3287 29.7452 14.3363 29.0861 15.4855C28.3497 16.7473 27.7917 18.1051 27.4279 19.52C27.0523 20.9426 26.8627 22.4079 26.8637 23.8793C26.8637 25.2517 27.0298 26.3068 27.3692 27.0541C27.5105 27.3974 27.7553 27.688 28.0697 27.8855C28.384 28.0829 28.7522 28.1773 29.1227 28.1555Z" fill="#E88634"/>
        <path d="M44.7772 11.9346V10.9235C45.1793 10.7607 45.6376 10.5922 46.1521 10.418C46.665 10.2446 47.19 10.0883 47.7298 9.95401C48.2695 9.81969 48.7823 9.70979 49.2659 9.60966C49.6918 9.52124 50.1252 9.47381 50.5602 9.46802L51.2929 9.95645L47.488 27.9137H50.4796V28.9638C49.8781 29.4154 49.2099 29.7705 48.499 30.0164C47.7861 30.2781 47.0336 30.4152 46.2742 30.4218C45.4911 30.4218 44.931 30.246 44.594 29.8943C44.4323 29.735 44.3042 29.5448 44.2173 29.3351C44.1305 29.1253 44.0867 28.9002 44.0885 28.6732C44.0861 28.1492 44.1245 27.6258 44.2033 27.1078C44.2847 26.5949 44.3921 26.0251 44.5256 25.3983L47.3781 12.34L44.7772 11.9346Z" fill="#E88634"/>
        <path d="M65.9387 22.2503C65.5701 23.264 65.1311 24.2506 64.6248 25.2029C64.1198 26.1706 63.5097 27.0797 62.8054 27.9137C62.1535 28.6911 61.3818 29.3597 60.5195 29.8943C59.7197 30.3964 58.7946 30.663 57.8502 30.6636C55.045 30.6636 53.6424 28.6285 53.6424 24.5582C53.6395 22.6879 53.9119 20.8274 54.4507 19.0364C54.954 17.3171 55.7478 15.6965 56.7976 14.2449C57.7926 12.8678 59.0677 11.7168 60.539 10.8674C62.0609 10.004 63.7862 9.56384 65.5357 9.59257C66.0804 9.57774 66.6245 9.63857 67.1524 9.77329C67.6505 9.92865 68.1397 10.1113 68.6177 10.3203C69.6639 9.76205 70.8315 9.47016 72.0172 9.47046L68.3589 27.9137H71.3114V28.9419C70.7279 29.4034 70.0718 29.7648 69.3699 30.0115C68.658 30.2772 67.905 30.416 67.1451 30.4218C66.3636 30.4218 65.8044 30.2533 65.4673 29.9163C65.315 29.781 65.1916 29.6163 65.1047 29.432C65.0178 29.2478 64.9692 29.0478 64.9618 28.8442C64.996 28.0428 65.0907 27.2452 65.2451 26.4582C65.4323 25.3511 65.7148 23.9484 66.0925 22.2503H65.9387ZM59.5402 28.1555C60.268 28.1555 60.9965 27.812 61.7259 27.1249C62.5038 26.3768 63.1952 25.5437 63.7871 24.6412C64.4353 23.6731 65.017 22.6622 65.5284 21.6154C66.0396 20.5669 66.4466 19.6926 66.7495 18.9925L68.0463 12.0958C67.714 11.8506 67.3446 11.6601 66.9522 11.5316C66.474 11.4082 65.9805 11.3539 65.4869 11.3705C64.2639 11.3645 63.0745 11.7696 62.1094 12.5207C61.0595 13.3287 60.1798 14.3363 59.5207 15.4855C58.7843 16.7473 58.2263 18.1051 57.8624 19.52C57.4794 20.9416 57.2824 22.4069 57.2763 23.8793C57.2763 25.2517 57.4448 26.31 57.7818 27.0541C57.9233 27.3982 58.169 27.6894 58.4843 27.8869C58.7996 28.0844 59.1688 28.1783 59.5402 28.1555Z" fill="#E88634"/>
    </g>

    <defs>
        <clipPath id="clip0_407_3518">
        <rect width="72" height="30.6639" fill="white"/>
        </clipPath>
    </defs>
</svg>
